<mxfile host="app.diagrams.net" agent="Mozilla/5.0 (Windows NT 10.0; Win64; x64) AppleWebKit/537.36 (KHTML, like Gecko) Chrome/134.0.0.0 Safari/537.36" version="26.1.0">
  <diagram name="Page-1" id="4STgGEGFGvnu8yBqXhxn">
    <mxGraphModel dx="1395" dy="635" grid="1" gridSize="10" guides="1" tooltips="1" connect="1" arrows="1" fold="1" page="1" pageScale="1" pageWidth="827" pageHeight="1169" math="0" shadow="0">
      <root>
        <mxCell id="0" />
        <mxCell id="1" parent="0" />
        <mxCell id="75qVHYepctXDhdH4JgwC-1" value="&lt;span style=&quot;color: rgb(0, 0, 0); font-family: Arial, sans-serif; font-size: 14.4px; text-align: left; background-color: rgb(255, 255, 255);&quot;&gt;utilisateurs finaux&lt;/span&gt;" style="rounded=1;whiteSpace=wrap;html=1;" vertex="1" parent="1">
          <mxGeometry x="600" y="250" width="120" height="60" as="geometry" />
        </mxCell>
        <mxCell id="75qVHYepctXDhdH4JgwC-2" value="&lt;span style=&quot;color: rgb(0, 0, 0); font-family: Arial, sans-serif; font-size: 14.4px; text-align: left; background-color: rgb(255, 255, 255);&quot;&gt;livreurs&lt;/span&gt;" style="rounded=1;whiteSpace=wrap;html=1;" vertex="1" parent="1">
          <mxGeometry x="600" y="410" width="120" height="60" as="geometry" />
        </mxCell>
        <mxCell id="75qVHYepctXDhdH4JgwC-3" value="&lt;span style=&quot;color: rgb(0, 0, 0); font-family: Arial, sans-serif; font-size: 14.4px; text-align: left; background-color: rgb(255, 255, 255);&quot;&gt;restaurateurs&amp;nbsp;&lt;/span&gt;" style="rounded=1;whiteSpace=wrap;html=1;" vertex="1" parent="1">
          <mxGeometry x="600" y="330" width="120" height="60" as="geometry" />
        </mxCell>
        <mxCell id="75qVHYepctXDhdH4JgwC-4" value="&lt;span style=&quot;color: rgb(0, 0, 0); font-family: Arial, sans-serif; font-size: 14.4px; text-align: left; background-color: rgb(255, 255, 255);&quot;&gt;dÃ©veloppeurs&amp;nbsp;&lt;/span&gt;" style="rounded=1;whiteSpace=wrap;html=1;" vertex="1" parent="1">
          <mxGeometry x="600" y="490" width="120" height="60" as="geometry" />
        </mxCell>
        <mxCell id="75qVHYepctXDhdH4JgwC-5" value="&lt;span style=&quot;color: rgb(0, 0, 0); font-family: Arial, sans-serif; font-size: 14.4px; text-align: left; background-color: rgb(255, 255, 255);&quot;&gt;service commercial&lt;/span&gt;" style="rounded=1;whiteSpace=wrap;html=1;" vertex="1" parent="1">
          <mxGeometry x="600" y="570" width="120" height="60" as="geometry" />
        </mxCell>
        <mxCell id="75qVHYepctXDhdH4JgwC-6" value="&lt;span style=&quot;color: rgb(0, 0, 0); font-family: Arial, sans-serif; font-size: 14.4px; text-align: left; background-color: rgb(255, 255, 255);&quot;&gt;service technique&lt;/span&gt;" style="rounded=1;whiteSpace=wrap;html=1;" vertex="1" parent="1">
          <mxGeometry x="600" y="650" width="120" height="60" as="geometry" />
        </mxCell>
        <mxCell id="75qVHYepctXDhdH4JgwC-7" value="NodeJS" style="rounded=1;whiteSpace=wrap;html=1;" vertex="1" parent="1">
          <mxGeometry x="189" y="60" width="120" height="60" as="geometry" />
        </mxCell>
        <mxCell id="75qVHYepctXDhdH4JgwC-8" value="SQLServer" style="rounded=1;whiteSpace=wrap;html=1;" vertex="1" parent="1">
          <mxGeometry x="519" y="60" width="120" height="60" as="geometry" />
        </mxCell>
        <mxCell id="75qVHYepctXDhdH4JgwC-9" value="MongoDB" style="rounded=1;whiteSpace=wrap;html=1;" vertex="1" parent="1">
          <mxGeometry x="353" y="60" width="120" height="60" as="geometry" />
        </mxCell>
        <mxCell id="75qVHYepctXDhdH4JgwC-17" value="" style="group" vertex="1" connectable="0" parent="1">
          <mxGeometry x="350" y="410" width="80" height="80" as="geometry" />
        </mxCell>
        <mxCell id="75qVHYepctXDhdH4JgwC-10" value="" style="ellipse;shape=doubleEllipse;whiteSpace=wrap;html=1;aspect=fixed;" vertex="1" parent="75qVHYepctXDhdH4JgwC-17">
          <mxGeometry width="80" height="80" as="geometry" />
        </mxCell>
        <mxCell id="75qVHYepctXDhdH4JgwC-14" value="" style="shape=singleArrow;direction=north;whiteSpace=wrap;html=1;rotation=90;" vertex="1" parent="75qVHYepctXDhdH4JgwC-17">
          <mxGeometry x="30" y="10" width="20" height="50" as="geometry" />
        </mxCell>
        <mxCell id="75qVHYepctXDhdH4JgwC-16" value="" style="shape=singleArrow;direction=north;whiteSpace=wrap;html=1;rotation=-90;" vertex="1" parent="75qVHYepctXDhdH4JgwC-17">
          <mxGeometry x="30" y="30" width="20" height="50" as="geometry" />
        </mxCell>
        <mxCell id="75qVHYepctXDhdH4JgwC-19" style="edgeStyle=orthogonalEdgeStyle;rounded=0;orthogonalLoop=1;jettySize=auto;html=1;entryX=0;entryY=0.5;entryDx=0;entryDy=0;" edge="1" parent="1" source="75qVHYepctXDhdH4JgwC-10" target="75qVHYepctXDhdH4JgwC-1">
          <mxGeometry relative="1" as="geometry" />
        </mxCell>
        <mxCell id="75qVHYepctXDhdH4JgwC-20" style="edgeStyle=orthogonalEdgeStyle;rounded=0;orthogonalLoop=1;jettySize=auto;html=1;entryX=0;entryY=0.5;entryDx=0;entryDy=0;" edge="1" parent="1" source="75qVHYepctXDhdH4JgwC-10" target="75qVHYepctXDhdH4JgwC-3">
          <mxGeometry relative="1" as="geometry" />
        </mxCell>
        <mxCell id="75qVHYepctXDhdH4JgwC-21" style="edgeStyle=orthogonalEdgeStyle;rounded=0;orthogonalLoop=1;jettySize=auto;html=1;entryX=0;entryY=0.5;entryDx=0;entryDy=0;" edge="1" parent="1" source="75qVHYepctXDhdH4JgwC-10" target="75qVHYepctXDhdH4JgwC-2">
          <mxGeometry relative="1" as="geometry" />
        </mxCell>
        <mxCell id="75qVHYepctXDhdH4JgwC-22" style="edgeStyle=orthogonalEdgeStyle;rounded=0;orthogonalLoop=1;jettySize=auto;html=1;entryX=0;entryY=0.5;entryDx=0;entryDy=0;" edge="1" parent="1" source="75qVHYepctXDhdH4JgwC-10" target="75qVHYepctXDhdH4JgwC-4">
          <mxGeometry relative="1" as="geometry" />
        </mxCell>
        <mxCell id="75qVHYepctXDhdH4JgwC-23" style="edgeStyle=orthogonalEdgeStyle;rounded=0;orthogonalLoop=1;jettySize=auto;html=1;entryX=0;entryY=0.5;entryDx=0;entryDy=0;" edge="1" parent="1" source="75qVHYepctXDhdH4JgwC-10" target="75qVHYepctXDhdH4JgwC-5">
          <mxGeometry relative="1" as="geometry" />
        </mxCell>
        <mxCell id="75qVHYepctXDhdH4JgwC-24" style="edgeStyle=orthogonalEdgeStyle;rounded=0;orthogonalLoop=1;jettySize=auto;html=1;entryX=0;entryY=0.5;entryDx=0;entryDy=0;" edge="1" parent="1" source="75qVHYepctXDhdH4JgwC-10" target="75qVHYepctXDhdH4JgwC-6">
          <mxGeometry relative="1" as="geometry" />
        </mxCell>
      </root>
    </mxGraphModel>
  </diagram>
</mxfile>
